<?xml version="1.0" standalone="no"?><svg xmlns="http://www.w3.org/2000/svg" viewBox="0 0 1440 320"><path fill="#CF4ABF" fill-opacity="1" d="M0,96L9.2,112C18.5,128,37,160,55,176C73.8,192,92,192,111,208C129.2,224,148,256,166,261.3C184.6,267,203,245,222,224C240,203,258,181,277,176C295.4,171,314,181,332,208C350.8,235,369,277,388,272C406.2,267,425,213,443,208C461.5,203,480,245,498,250.7C516.9,256,535,224,554,186.7C572.3,149,591,107,609,122.7C627.7,139,646,213,665,245.3C683.1,277,702,267,720,256C738.5,245,757,235,775,202.7C793.8,171,812,117,831,133.3C849.2,149,868,235,886,261.3C904.6,288,923,256,942,229.3C960,203,978,181,997,197.3C1015.4,213,1034,267,1052,250.7C1070.8,235,1089,149,1108,138.7C1126.2,128,1145,192,1163,218.7C1181.5,245,1200,235,1218,240C1236.9,245,1255,267,1274,261.3C1292.3,256,1311,224,1329,181.3C1347.7,139,1366,85,1385,53.3C1403.1,21,1422,11,1431,5.3L1440,0L1440,320L1430.8,320C1421.5,320,1403,320,1385,320C1366.2,320,1348,320,1329,320C1310.8,320,1292,320,1274,320C1255.4,320,1237,320,1218,320C1200,320,1182,320,1163,320C1144.6,320,1126,320,1108,320C1089.2,320,1071,320,1052,320C1033.8,320,1015,320,997,320C978.5,320,960,320,942,320C923.1,320,905,320,886,320C867.7,320,849,320,831,320C812.3,320,794,320,775,320C756.9,320,738,320,720,320C701.5,320,683,320,665,320C646.2,320,628,320,609,320C590.8,320,572,320,554,320C535.4,320,517,320,498,320C480,320,462,320,443,320C424.6,320,406,320,388,320C369.2,320,351,320,332,320C313.8,320,295,320,277,320C258.5,320,240,320,222,320C203.1,320,185,320,166,320C147.7,320,129,320,111,320C92.3,320,74,320,55,320C36.9,320,18,320,9,320L0,320Z"></path></svg>